<svg id="Layer_1" enable-background="new 0 0 511.698 511.698" height="512" viewBox="0 0 511.698 511.698" width="512" xmlns="http://www.w3.org/2000/svg"><g><g><path d="m340.969 105.92c-8.284 0-15-6.716-15-15v-49.749c0-6.159-5.011-11.171-11.171-11.171h-120.752c-6.159 0-11.17 5.012-11.17 11.171v49.749c0 8.284-6.716 15-15 15s-15-6.716-15-15v-49.749c-.001-22.702 18.468-41.171 41.17-41.171h120.752c22.702 0 41.171 18.469 41.171 41.171v49.749c0 8.284-6.716 15-15 15z" fill="#004960"/></g><path d="m314.798 0h-58.949v30h58.949c6.16 0 11.171 5.012 11.171 11.171v49.749c0 8.284 6.716 15 15 15s15-6.716 15-15v-49.749c0-22.702-18.47-41.171-41.171-41.171z" fill="#003140"/><path d="m471.737 205.023v289.858c0 9.288-7.529 16.817-16.817 16.817h-399.432c-9.288 0-16.817-7.529-16.817-16.817v-289.858z" fill="#f4f1f1"/><path d="m255.849 511.698h199.071c9.288 0 16.817-7.529 16.817-16.817v-289.858h-215.888z" fill="#eceae7"/><path d="m450.196 255.703h-388.694c-26.94 0-48.779-21.839-48.779-48.779v-103.854c0-6.71 5.44-12.15 12.15-12.15h78.3l15 47.396 15-47.396h244.064l15 34.453 15-34.453h79.59c6.71 0 12.15 5.44 12.15 12.15v103.853c-.001 26.94-21.841 48.78-48.781 48.78z" fill="#ff4a4a"/><path d="m319.887 352.854h-32.926c-2.512 0-4.548-2.036-4.548-4.548v-32.926c0-3.652-2.961-6.613-6.613-6.613h-41.192c-3.652 0-6.613 2.961-6.613 6.613v32.926c0 2.512-2.036 4.548-4.548 4.548h-32.926c-3.652 0-6.613 2.961-6.613 6.613v41.192c0 3.652 2.961 6.613 6.613 6.613h32.926c2.512 0 4.548 2.036 4.548 4.548v32.926c0 3.652 2.961 6.613 6.613 6.613h41.192c3.652 0 6.613-2.961 6.613-6.613v-32.926c0-2.512 2.036-4.548 4.548-4.548h32.926c3.652 0 6.613-2.961 6.613-6.613v-41.192c.001-3.652-2.96-6.613-6.613-6.613z" fill="#ff4a4a"/><path d="m319.887 352.854h-32.926c-2.512 0-4.548-2.036-4.548-4.548v-32.926c0-3.652-2.961-6.613-6.613-6.613h-19.951v142.593h19.951c3.652 0 6.613-2.961 6.613-6.613v-32.927c0-2.512 2.036-4.548 4.548-4.548h32.926c3.652 0 6.613-2.961 6.613-6.613v-41.192c.001-3.652-2.96-6.613-6.613-6.613z" fill="#e20059"/><path d="m255.849 255.703h194.347c26.94 0 48.779-21.839 48.779-48.779v-103.854c0-6.71-5.44-12.15-12.15-12.15h-79.59l-15 45.435-15-45.435h-121.386z" fill="#e20059"/><g><path d="m103.172 90.92v202.847c0 8.284 6.716 15 15 15s15-6.716 15-15v-202.847z" fill="#fff5f5"/><path d="m377.236 90.92v202.847c0 8.284 6.716 15 15 15s15-6.716 15-15v-202.847z" fill="#f4f1f1"/></g></g></svg>