<svg id="Capa_1" enable-background="new 0 0 511.883 511.883" height="512" viewBox="0 0 511.883 511.883" width="512" xmlns="http://www.w3.org/2000/svg"><g><path d="m116.711 75.29h210.7v90.24h-210.7z" fill="#cee9f8"/><path d="m222.061 75.29h105.35v90.24h-105.35z" fill="#a1d7f3"/><path d="m380.121 218.35-36.97 80.72 21.97 62.28v150.53h-301.12v-82.82l50.12-105.36-50.12-105.35v-82.82h316.12z" fill="#e5f2fa"/><path d="m380.121 218.35-36.97 80.72 21.97 62.28v150.53h-143.06v-376.35h158.06z" fill="#cee9f8"/><path d="m86.591 0h270.94v105.29h-270.94z" fill="#00429c"/><g fill="#00347b"><path d="m222.061 0h135.47v105.29h-135.47z"/><path d="m207.061 0h30v105.29h-30z"/><path d="m146.821 0h30v105.29h-30z"/></g><path d="m267.301 0h30v105.29h-30z" fill="#002659"/><path d="m222.061 0h15v105.29h-15z" fill="#002659"/><path d="m380.121 218.35v143h-15v67.71h-301.12v-210.71z" fill="#ff4d4d"/><path d="m380.121 218.35v143h-15v67.71h-143.06v-210.71z" fill="#cc295f"/><path d="m447.881 429.12c0 74.118-89.696 110.104-141.28 58.52-51.746-51.747-15.308-141.29 58.52-141.29 45.709 0 82.76 36.997 82.76 82.77z" fill="#f6e178"/><path d="m433.291 382.16-115.13 115.13c-8.201-5.661-15.49-12.938-21.22-21.21l115.14-115.14c8.284 5.738 15.505 12.953 21.21 21.22z" fill="#eec078"/><path d="m139.241 278.59h165.64v30h-165.64z" fill="#e5f2fa"/><path d="m222.061 278.59h82.82v30h-82.82z" fill="#cee9f8"/><path d="m191.941 338.82h60.24v30h-60.24z" fill="#e5f2fa"/><path d="m222.061 338.82h30.12v30h-30.12z" fill="#cee9f8"/></g></svg>